<?xml version="1.0" encoding="UTF-8"?>
<svg xmlns="http://www.w3.org/2000/svg" version="1.1" viewBox="0 0 2000 600">
  <!-- Generator: Adobe Illustrator 29.7.1, SVG Export Plug-In . SVG Version: 2.1.1 Build 8)  -->
  <defs>
    <style>
      .st0 {
        fill: #a99a6f;
      }

      .st1 {
        fill: #e44343;
      }

      .st2 {
        fill: #202739;
      }

      .st3 {
        fill: #fff;
      }

      .st4 {
        fill: #0d0f14;
      }

      .st5 {
        fill: #fcfcfc;
      }
    </style>
  </defs>
  <g id="Black">
    <rect class="st4" x="-1" y="-1" width="2002" height="602"/>
  </g>
  <g id="Isekai">
    <g>
      <g>
        <path class="st3" d="M561.68,195.96h-42.2c-2.48,0-3.72,1.25-3.72,3.74v191.26c0,2.49,1.25,3.74,3.72,3.74h42.2c2.48,0,3.72-1.25,3.72-3.74v-191.26c0-2.49-1.25-3.74-3.72-3.74Z"/>
        <path class="st3" d="M684.67,195.96h-40.24c-1.29,0-2.36.18-3.22.53-.84.34-1.76.81-2.75,1.41l-39.2,26.53c-1.29.91-2.04,1.72-2.23,2.46-.21.74-.31,1.93-.31,3.51v54.71c0,1.99.84,3.48,2.54,4.47l38.46,23.86v26.55l-39.06,17.89c-1,.5-1.57,1.13-1.72,1.94-.15.79-.23,1.83-.23,3.12v28.02c0,2.49,1.25,3.74,3.72,3.74h34.59c.79,0,1.62-.23,2.46-.68.84-.44,1.57-.81,2.17-1.12l46.81-23.26c.79-.39,1.31-1.04,1.57-1.93.24-.91.37-1.75.37-2.54v-64.84c0-2.49-.74-4.08-2.25-4.78l-39.06-22.37v-27.58l39.06-16.09c1.51-.79,2.25-2.3,2.25-4.48v-25.33c0-2.49-1.25-3.74-3.74-3.74Z"/>
        <path class="st3" d="M827.34,195.96h-103.9c-2.49,0-3.74,1.25-3.74,3.74v191.26c0,2.49,1.25,3.74,3.74,3.74h103.9c2.49,0,3.74-1.25,3.74-3.74v-32.34c0-2.49-1.25-3.72-3.74-3.72h-57.98v-42.2h52.91c2.49,0,3.74-1.25,3.74-3.72v-27.29c0-2.48-1.25-3.72-3.74-3.72h-52.91v-42.34h57.98c2.49,0,3.74-1.23,3.74-3.72v-32.2c0-2.49-1.25-3.74-3.74-3.74Z"/>
        <path class="st3" d="M1008.04,365.18l-21.92-49.79-12.97-23.55,12.66-23.86,18.19-43.69c.19-.79.45-1.72.74-2.75.31-1.05.45-2.12.45-3.21v-18.63c0-2.49-1.25-3.74-3.74-3.74h-42.93c-1.49,0-2.61.18-3.35.53-.74.34-1.23.81-1.42,1.41l-8.94,43.69-9.84,37.12h-18.49v-79.01c0-2.49-1.25-3.74-3.74-3.74h-42.18c-2.49,0-3.74,1.25-3.74,3.74v191.26c0,2.49,1.25,3.74,3.74,3.74h42.18c2.49,0,3.74-1.25,3.74-3.74v-72.74h20.86l8.21,26.98,11.02,47.27c.19.99.83,1.6,1.86,1.86,1.05.24,1.91.37,2.61.37h44.43c2.49,0,3.72-1.25,3.72-3.74v-20.12c0-1.49-.1-2.64-.29-3.43-.19-.79-.5-1.54-.89-2.23Z"/>
        <path class="st3" d="M1133.72,198.2c-.99-1.49-2.59-2.23-4.78-2.23h-49.34c-2.09,0-3.69.74-4.78,2.23l-35.34,50.1c-.99,1.7-1.49,3.19-1.49,4.47v138.2c0,2.49,1.25,3.74,3.72,3.74h42.34c2.48,0,3.72-1.25,3.72-3.74v-63.35h33.25v63.35c0,2.49,1.25,3.74,3.72,3.74h42.2c2.48,0,3.72-1.25,3.72-3.74v-138.2c0-1.59-.5-3.08-1.49-4.47l-35.48-50.1ZM1122.91,289.52c-3.22,4.01-9.4,6.04-18.55,6.04s-15.18-2.02-18.42-6.04c-3.22-4.03-4.84-11.7-4.84-23.03s1.62-19.02,4.84-23.03c3.24-4.03,9.37-6.04,18.42-6.04s15.33,2.01,18.55,6.04c3.24,4.01,4.86,11.7,4.86,23.03s-1.62,19-4.86,23.03Z"/>
        <path class="st3" d="M1251.49,195.96h-42.2c-2.48,0-3.72,1.25-3.72,3.74v191.26c0,2.49,1.25,3.74,3.72,3.74h42.2c2.48,0,3.72-1.25,3.72-3.74v-191.26c0-2.49-1.25-3.74-3.72-3.74Z"/>
        <path class="st3" d="M1434.46,198.35c-1.59-1.59-3.58-2.38-5.96-2.38h-82.46c-2.48,0-3.72,1.25-3.72,3.72v191.28c0,2.49,1.25,3.72,3.72,3.72h42.2c2.48,0,3.72-1.23,3.72-3.72v-67.09h36.53c2.38,0,4.37-.84,5.96-2.53l29.82-29.82c1.68-1.59,2.54-3.58,2.54-5.97v-51.43c0-2.3-.86-4.27-2.54-5.97l-29.82-29.82ZM1420.07,278.41c-3.03,3.29-8.68,4.92-16.92,4.92s-13.74-1.63-16.77-4.92c-3.04-3.27-4.55-9.49-4.55-18.63s1.51-15.36,4.55-18.63c3.03-3.29,8.61-4.92,16.77-4.92s13.89,1.63,16.92,4.92c3.03,3.27,4.55,9.49,4.55,18.63s-1.52,15.36-4.55,18.63Z"/>
        <path class="st3" d="M1593.83,198.35c-1.6-1.59-3.58-2.38-5.97-2.38h-58.58c-2.3,0-4.29.79-5.97,2.38l-29.82,29.82c-1.68,1.7-2.54,3.67-2.54,5.97v122.24c0,2.4.86,4.37,2.54,5.97l29.82,29.82c1.68,1.68,3.67,2.53,5.97,2.53h58.58c2.4,0,4.37-.84,5.97-2.53l29.82-29.82c1.68-1.6,2.53-3.58,2.53-5.97v-122.24c0-2.3-.84-4.27-2.53-5.97l-29.82-29.82ZM1576.53,346.54c0,5.57-2.09,8.35-6.26,8.35h-23.41c-4.06,0-6.1-2.78-6.1-8.35v-102.41c0-5.67,2.04-8.5,6.1-8.5h23.41c4.18,0,6.26,2.83,6.26,8.5v102.41Z"/>
        <path class="st3" d="M1764.83,198.35c-1.6-1.59-3.58-2.38-5.97-2.38h-58.58c-2.3,0-4.29.79-5.97,2.38l-29.82,29.82c-1.68,1.7-2.54,3.67-2.54,5.97v122.24c0,2.4.86,4.37,2.54,5.97l29.82,29.82c1.68,1.68,3.67,2.53,5.97,2.53h58.58c2.4,0,4.37-.84,5.97-2.53l29.82-29.82c1.68-1.6,2.52-3.58,2.52-5.97v-122.24c0-2.3-.84-4.27-2.52-5.97l-29.82-29.82ZM1747.53,346.54c0,5.57-2.09,8.35-6.26,8.35h-23.41c-4.06,0-6.1-2.78-6.1-8.35v-102.41c0-5.67,2.04-8.5,6.1-8.5h23.41c4.18,0,6.26,2.83,6.26,8.5v102.41Z"/>
        <path class="st3" d="M1920.17,354.89h-37.57v-155.2c0-2.48-1.25-3.72-3.74-3.72h-42.18c-2.49,0-3.74,1.25-3.74,3.72v191.28c0,2.49,1.25,3.72,3.74,3.72h83.49c2.48,0,3.72-1.23,3.72-3.72v-32.36c0-2.48-1.25-3.72-3.72-3.72Z"/>
      </g>
      <g>
        <g>
          <path class="st3" d="M432.2,297.23c.04-7.08,5.59-12.89,12.65-13.22l5.55-.26-.54-5.53c-8.92-91.39-81.73-164.23-173.12-173.21l-5.52-.54-.27,5.54c-.35,7.09-6.18,12.65-13.34,12.66-7.1-.04-12.91-5.6-13.24-12.67l-.26-5.56-5.54.54c-91.43,8.95-164.28,81.81-173.21,173.24l-.54,5.53,5.55.26c7.06.34,12.61,6.16,12.63,13.25v.03c0,7.1-5.55,12.94-12.64,13.28l-5.55.27.54,5.52c5.62,57.11,36.19,108.43,83.85,140.8,2.73,1.87,5.7,3.75,9.05,5.76,17.85,10.75,37.21,18.47,57.52,22.96,2.9.64,6.03,1.24,9.27,1.78,4.38.75,8.93,1.37,13.52,1.82l5.54.55.26-5.56c.34-7.06,6.16-12.62,13.25-12.65h.05c7.12,0,12.96,5.56,13.28,12.66l.26,5.56,5.54-.54c5.12-.5,10.21-1.2,15.12-2.09,12.97-2.34,25.69-6,37.82-10.9,6.42-2.6,12.54-5.45,18.16-8.47,5.58-2.95,10.94-6.13,15.9-9.42,1.67-1.09,3.38-2.25,4.97-3.38,1.32-.89,2.72-1.85,3.99-2.86.32-.25.65-.49,1.06-.79,3.61-2.71,7.27-5.68,10.87-8.83,2.96-2.59,5.52-4.96,7.77-7.18,3.01-2.88,5.96-5.93,9.04-9.34,2.51-2.82,4.7-5.4,6.7-7.89,2.36-2.94,4.62-5.93,6.7-8.86,1.68-2.34,3.14-4.47,4.41-6.44,3.08-4.62,5.94-9.41,8.72-14.64,12.01-22.39,19.37-46.62,21.87-72.01l.54-5.52-5.54-.27c-7.08-.35-12.62-6.18-12.63-13.34Z"/>
          <path class="st1" d="M444.59,278.73c-9.84.47-17.64,8.55-17.68,18.49v.07h-169.33V127.95h.07c9.95,0,18.08-7.83,18.56-17.68,88.95,8.74,159.7,79.52,168.38,168.47Z"/>
          <path class="st0" d="M257.58,297.29v169.24c-9.94.04-18.04,7.86-18.5,17.68-4.44-.44-8.81-1.02-13.15-1.77-3.02-.5-6.05-1.07-9.02-1.73-20.03-4.42-38.87-12.05-55.94-22.32-2.99-1.79-5.94-3.65-8.8-5.59-44.94-30.52-75.96-80.02-81.57-136.95,9.85-.48,17.67-8.59,17.67-18.56h169.3Z"/>
          <path class="st2" d="M257.65,127.95v169.3H88.28c-.03-9.94-7.83-18.05-17.67-18.52,8.7-89.01,79.48-159.79,168.47-168.5.45,9.84,8.56,17.67,18.5,17.71h.07Z"/>
          <path class="st2" d="M444.56,315.85c-2.47,25.14-9.88,48.81-21.27,70.03-2.61,4.89-5.4,9.62-8.46,14.2-1.38,2.14-2.81,4.22-4.3,6.29-2.08,2.93-4.27,5.83-6.53,8.64-2.11,2.62-4.3,5.18-6.53,7.69-2.81,3.12-5.71,6.13-8.74,9.03-2.47,2.44-5.01,4.76-7.6,7.03-3.41,2.99-6.92,5.86-10.55,8.58-.37.26-.73.54-1.1.82-1.2.95-2.47,1.83-3.73,2.68-1.61,1.14-3.26,2.27-4.9,3.34-5.01,3.32-10.17,6.37-15.49,9.18-5.69,3.06-11.62,5.8-17.67,8.24-11.71,4.73-24.02,8.3-36.77,10.6-4.85.88-9.73,1.55-14.7,2.03-.45-9.85-8.61-17.7-18.56-17.7h-.01v-169.32h169.27v.07c0,9.95,7.82,18.08,17.65,18.56Z"/>
          <path class="st3" d="M430.51,315.94l-15.27-.77-8.3-12.84-8.3,12.84-15.27.77,6.97,13.61-6.97,13.61,15.27.77,8.3,12.84,8.3-12.84,15.27-.77-6.97-13.61,6.97-13.61ZM421.93,328.62h-11.55l16.4-9.47-4.85,9.47ZM415.23,317.02l10.63.53-16.4,9.47,5.78-10ZM407.86,326.1v-18.94l5.78,8.94-5.78,10ZM406.01,326.1l-5.78-10,5.78-8.94v18.94ZM404.41,327.02l-16.4-9.47,10.63-.53,5.78,10ZM398.64,342.07l-10.63-.53,16.4-9.47-5.78,10ZM406.01,332.99v18.94l-5.78-8.94,5.78-10ZM407.86,332.99l5.78,10-5.78,8.94v-18.94ZM409.46,332.07l16.4,9.47-10.63.53-5.78-10ZM387.09,319.15l16.4,9.47h-11.55l-4.85-9.47ZM391.94,330.47h11.55l-16.4,9.47,4.85-9.47ZM426.78,339.94l-16.4-9.47h11.55l4.85,9.47Z"/>
          <path class="st3" d="M137.75,273.87l-14.05-.71-7.64-11.82-7.64,11.82-14.05.71,6.42,12.52-6.42,12.52,14.05.71,7.64,11.82,7.64-11.82,14.05-.71-6.42-12.52,6.42-12.52ZM129.86,285.54h-10.63l15.1-8.72-4.46,8.72ZM123.69,274.86l9.78.49-15.1,8.72,5.32-9.21ZM116.9,283.22v-17.43l5.32,8.23-5.32,9.21ZM115.2,283.22l-5.32-9.21,5.32-8.23v17.43ZM113.73,284.07l-15.1-8.72,9.78-.49,5.32,9.21ZM108.42,297.92l-9.78-.49,15.1-8.72-5.32,9.21ZM115.2,289.56v17.43l-5.32-8.23,5.32-9.21ZM116.9,289.56l5.32,9.21-5.32,8.23v-17.43ZM118.37,288.71l15.1,8.72-9.78.49-5.32-9.21ZM97.78,276.83l15.1,8.72h-10.63l-4.46-8.72ZM102.25,287.24h10.63l-15.1,8.72,4.46-8.72ZM134.32,295.96l-15.1-8.72h10.63l4.46,8.72Z"/>
          <path class="st3" d="M276.81,418.09l-12.46-.63-6.77-10.48-6.77,10.48-12.46.63,5.69,11.1-5.69,11.1,12.46.63,6.77,10.48,6.77-10.48,12.46-.63-5.69-11.1,5.69-11.1ZM269.82,428.44h-9.42l13.38-7.73-3.96,7.73ZM264.35,418.97l8.67.44-13.38,7.73,4.71-8.16ZM258.33,426.38v-15.45l4.71,7.29-4.71,8.16ZM256.83,426.38l-4.71-8.16,4.71-7.29v15.45ZM255.52,427.13l-13.38-7.73,8.67-.44,4.71,8.16ZM250.81,439.41l-8.67-.44,13.38-7.73-4.71,8.16ZM256.83,432v15.45l-4.71-7.29,4.71-8.16ZM258.33,432l4.71,8.16-4.71,7.29v-15.45ZM259.64,431.25l13.38,7.73-8.67.44-4.71-8.16ZM241.39,420.71l13.38,7.73h-9.42l-3.96-7.73ZM245.35,429.94h9.42l-13.38,7.73,3.96-7.73ZM273.77,437.67l-13.38-7.73h9.42l3.96,7.73Z"/>
          <g>
            <path class="st3" d="M334.45,403.32s11.74-4.76,14.04-8.5c2.3-3.74.2-16.02.2-16.02,0,0-4.56,1.13-9.88,9.62-5.32,8.49-4.36,14.9-4.36,14.9Z"/>
            <path class="st3" d="M400.95,415.4s6.54-11.04-7.83-29.53c0,0,.47,12.63-2.54,20.51,7.48,7.73,10.38,9.02,10.38,9.02Z"/>
            <path class="st3" d="M330.07,426.54c2.38.17,10.59-7.56,10.59-7.56-9.45-2.54-18.41,3.02-18.41,3.02,0,0,5.44,4.37,7.82,4.54Z"/>
            <path class="st3" d="M295.46,345.38s-30.16,28.63-14.04,65.4c14.34,30.88,48.27,47.11,75.65,32.83,27.38-14.29,36.18-45.88,32.11-68.44-3.49-19.38-10.03-30.85-20.07-36.31-3.98-2.17-8.86-1.39-11.92,1.95-3.08,3.36-6.41,8.68-6.66,16.08-.47,13.95.79,15.38,2.08,26.88,1.3,11.51.68,36.47-22.91,46.02-21.79,8.85-40.07-6.27-44.21-21.86-4.13-15.58,1.36-23.85,7.32-31.13-6.34-14.78,2.64-31.43,2.64-31.43ZM319.04,436.93c16.23,2.47,32.67-5.3,42.06-18.54,9.72-13.04,15.18-29.8,12.39-46.08,5.83,18.74-1.62,39.52-14.51,53.6-6.93,6.88-15.91,12.05-25.7,13.22-9.68,1.3-19.37-1.26-28.06-5.25,4.58,1.3,9.16,2.52,13.82,3.05Z"/>
            <path class="st3" d="M294.76,397.36c5.88-8.03,14.27-11.31,15.85-19.77s.33-10.19.33-10.19c0,0-4.4,6.09-9.42,7.86-5.02,1.77-6.11,3.05-6.11,3.05,0,0-17.31,16.66-2.63,37.68,0,0-3.91-10.6,1.97-18.63Z"/>
          </g>
        </g>
        <g>
          <path class="st2" d="M337.1,335.94v-77.42c-5.91,0-10.69-4.79-10.69-10.69h-137.63c0,5.91-4.79,10.69-10.69,10.69v77.42c5.91,0,10.69,4.79,10.69,10.69h137.63c0-5.91,4.79-10.69,10.69-10.69Z"/>
          <g>
            <g>
              <path class="st3" d="M202.2,266.17h6.31c.31,0,.56.25.56.56v28.61c0,.31-.25.56-.56.56h-6.31c-.31,0-.56-.25-.56-.56v-28.61c0-.31.25-.56.56-.56Z"/>
              <path class="st3" d="M226.9,266.17h-6.02c-.19,0-.35.03-.48.08-.13.05-.26.12-.41.21l-5.86,3.97c-.19.14-.31.26-.33.37-.03.11-.05.29-.05.53v8.18c0,.3.13.52.38.67l5.75,3.57v3.97l-5.84,2.67c-.15.08-.23.17-.26.29-.02.12-.03.27-.03.47v4.19c0,.37.19.56.56.56h5.17c.12,0,.24-.03.37-.1.13-.07.23-.12.32-.17l7-3.48c.12-.06.2-.15.23-.29.04-.14.06-.26.06-.38v-9.7c0-.37-.11-.61-.34-.71l-5.84-3.35v-4.12l5.84-2.41c.23-.12.34-.34.34-.67v-3.79c0-.37-.19-.56-.56-.56Z"/>
              <path class="st3" d="M248.23,266.17h-15.54c-.37,0-.56.19-.56.56v28.6c0,.37.19.56.56.56h15.54c.37,0,.56-.19.56-.56v-4.84c0-.37-.19-.56-.56-.56h-8.67v-6.31h7.91c.37,0,.56-.19.56-.56v-4.08c0-.37-.19-.56-.56-.56h-7.91v-6.33h8.67c.37,0,.56-.18.56-.56v-4.81c0-.37-.19-.56-.56-.56Z"/>
              <path class="st3" d="M275.26,291.48l-3.28-7.45-1.94-3.52,1.89-3.57,2.72-6.53c.03-.12.07-.26.11-.41.05-.16.07-.32.07-.48v-2.79c0-.37-.19-.56-.56-.56h-6.42c-.22,0-.39.03-.5.08-.11.05-.18.12-.21.21l-1.34,6.53-1.47,5.55h-2.76v-11.82c0-.37-.19-.56-.56-.56h-6.31c-.37,0-.56.19-.56.56v28.6c0,.37.19.56.56.56h6.31c.37,0,.56-.19.56-.56v-10.88h3.12l1.23,4.04,1.65,7.07c.03.15.12.24.28.28.16.04.29.06.39.06h6.64c.37,0,.56-.19.56-.56v-3.01c0-.22-.01-.39-.04-.51s-.08-.23-.13-.33Z"/>
              <path class="st3" d="M294.05,266.5c-.15-.22-.39-.33-.71-.33h-7.38c-.31,0-.55.11-.71.33l-5.28,7.49c-.15.25-.22.48-.22.67v20.67c0,.37.19.56.56.56h6.33c.37,0,.56-.19.56-.56v-9.47h4.97v9.47c0,.37.19.56.56.56h6.31c.37,0,.56-.19.56-.56v-20.67c0-.24-.08-.46-.22-.67l-5.31-7.49ZM292.44,280.16c-.48.6-1.41.9-2.77.9s-2.27-.3-2.75-.9c-.48-.6-.72-1.75-.72-3.44s.24-2.84.72-3.44c.48-.6,1.4-.9,2.75-.9s2.29.3,2.77.9c.48.6.73,1.75.73,3.44s-.24,2.84-.73,3.44Z"/>
              <path class="st3" d="M305.36,266.17h6.31c.31,0,.56.25.56.56v28.6c0,.31-.25.56-.56.56h-6.31c-.31,0-.56-.25-.56-.56v-28.61c0-.31.25-.56.56-.56Z"/>
            </g>
            <g>
              <path class="st3" d="M227.22,303.78c-.24-.24-.53-.36-.89-.36h-12.33c-.37,0-.56.19-.56.56v28.61c0,.37.19.56.56.56h6.31c.37,0,.56-.18.56-.56v-10.03h5.46c.36,0,.65-.13.89-.38l4.46-4.46c.25-.24.38-.53.38-.89v-7.69c0-.34-.13-.64-.38-.89l-4.46-4.46ZM225.07,315.75c-.45.49-1.3.74-2.53.74s-2.06-.24-2.51-.74c-.46-.49-.68-1.42-.68-2.79s.23-2.3.68-2.79c.45-.49,1.29-.74,2.51-.74s2.08.24,2.53.74c.45.49.68,1.42.68,2.79s-.23,2.3-.68,2.79Z"/>
              <path class="st3" d="M251.06,303.78c-.24-.24-.53-.36-.89-.36h-8.76c-.34,0-.64.12-.89.36l-4.46,4.46c-.25.25-.38.55-.38.89v18.28c0,.36.13.65.38.89l4.46,4.46c.25.25.55.38.89.38h8.76c.36,0,.65-.13.89-.38l4.46-4.46c.25-.24.38-.53.38-.89v-18.28c0-.34-.13-.64-.38-.89l-4.46-4.46ZM248.47,325.94c0,.83-.31,1.25-.94,1.25h-3.5c-.61,0-.91-.42-.91-1.25v-15.32c0-.85.31-1.27.91-1.27h3.5c.62,0,.94.42.94,1.27v15.32Z"/>
              <path class="st3" d="M276.63,303.78c-.24-.24-.53-.36-.89-.36h-8.76c-.34,0-.64.12-.89.36l-4.46,4.46c-.25.25-.38.55-.38.89v18.28c0,.36.13.65.38.89l4.46,4.46c.25.25.55.38.89.38h8.76c.36,0,.65-.13.89-.38l4.46-4.46c.25-.24.38-.53.38-.89v-18.28c0-.34-.13-.64-.38-.89l-4.46-4.46ZM274.04,325.94c0,.83-.31,1.25-.94,1.25h-3.5c-.61,0-.91-.42-.91-1.25v-15.32c0-.85.31-1.27.91-1.27h3.5c.62,0,.94.42.94,1.27v15.32Z"/>
              <path class="st3" d="M299.86,327.19h-5.62v-23.21c0-.37-.19-.56-.56-.56h-6.31c-.37,0-.56.19-.56.56v28.61c0,.37.19.56.56.56h12.49c.37,0,.56-.18.56-.56v-4.84c0-.37-.19-.56-.56-.56Z"/>
            </g>
          </g>
        </g>
        <path class="st3" d="M142.21,350.54l-3.29-3.08c-1.13-1.06-2.91-1.02-3.99.1l-1.62,1.68-1.62,1.68c-1.08,1.11-1.07,2.89.03,3.99l3.19,3.19c-4.19,3.92-17.36,17.96-20.58,42.43,0,0,7.78-16.47,25.65-32.98.6-.56,1.53-.55,2.14,0l1.67,1.55c.24.22.58.31.9.22l.6-.16c.33-.09.68,0,.92.25l61.31,61.45c1.51,1.51,3.97,1.49,5.45-.04l2.21-2.29,2.21-2.29c1.49-1.54,1.43-3.99-.13-5.45l-63.37-59.33c-.25-.23-.36-.58-.28-.92l.14-.61c.07-.32-.02-.66-.25-.89l-1.6-1.62c-.58-.58-.61-1.51-.08-2.13,15.94-18.38,32.15-26.69,32.15-26.69-24.36,4-37.97,17.61-41.76,21.92Z"/>
        <circle class="st0" cx="179.48" cy="395.6" r="26.17"/>
        <g>
          <path class="st3" d="M176.82,382.23l-.12-5.18-3.22.08.12,5.28c-.7.03-1.38.06-2.04.07h0s-4.44.09-4.44.09l.09,3.43s2.32-.09,2.33-.06c1.31-.03,1.75.72,1.89,1.36l.14,6.05.2,8.44c-.05.41-.27,1.07-1.19,1.09.05.03-2.33.06-2.33.06l-.55,3.86,4.18-.1c.79-.02,1.55-.02,2.3-.04l.13,5.34,3.21-.07-.13-5.29c.89,0,1.74-.02,2.57-.04l.13,5.26,3.21-.07-.12-5.34c5.4-.44,9.15-1.89,9.5-6.98.28-4.09-1.69-5.88-4.77-6.54,1.84-1,2.97-2.7,2.63-5.48-.04-.32-.1-.62-.17-.9-.85-3.09-3.96-4.12-7.77-4.36l-.13-5.29-3.22.08.12,5.14c-.84.02-1.71.06-2.57.09ZM186.32,399.01c.09,4-6.76,3.7-8.94,3.76l-.17-7.08c2.18-.05,9-.84,9.11,3.32ZM184.58,389.05c.08,3.63-5.63,3.35-7.44,3.39l-.16-6.43c1.82-.04,7.51-.75,7.6,3.04Z"/>
          <path class="st3" d="M212.6,408.32l2.66-10.92-5.06-2.36c0-.36,0-.71,0-1.07-.06-2.29-.38-4.53-.91-6.7l4.48-3.45-4.98-10.08-5.56,1.49c-.79-.95-1.62-1.87-2.53-2.74-.96-.92-1.98-1.76-3.03-2.53l1.25-5.66-10.29-4.52-3.34,4.77c-2.12-.4-4.29-.58-6.49-.53-.36,0-.72.05-1.08.07l-2.71-5.2-10.79,3.15.5,5.77c-1.31.72-2.57,1.53-3.76,2.45-.84.64-1.63,1.34-2.41,2.07l-5.35-2.21-6.24,9.35,4,4c-.84,2.14-1.43,4.37-1.76,6.66-.05.3-.07.61-.11.91l-5.37,1.7,1.23,11.18,5.47.48c.85,2.56,2.04,4.96,3.5,7.17l-2.92,4.6,8.13,7.77,4.4-3.08c2.29,1.41,4.78,2.52,7.4,3.3l.7,5.28,11.22.73,1.38-5.14c1.18-.18,2.34-.43,3.48-.74,1.48-.41,2.92-.93,4.31-1.56l3.94,3.6,9.06-6.65-2.29-4.9c1.78-2.05,3.25-4.3,4.41-6.69l5.46.23ZM202.18,394.17c.15,6.05-2.08,11.79-6.25,16.18-4.18,4.38-9.82,6.87-15.87,7.02-12.49.29-22.9-9.63-23.19-22.12-.03-1.22.04-2.44.21-3.64.63-4.69,2.72-9.05,6.05-12.54.15-.15.3-.31.45-.45,2.78-2.78,6.18-4.74,9.9-5.76,1.77-.49,3.62-.76,5.5-.8,12.49-.3,22.9,9.63,23.2,22.12Z"/>
        </g>
        <g>
          <polygon class="st5" points="180.25 211.24 169.39 256.12 176.52 266.36 188.92 252.85 192.11 238.49 180.25 211.24"/>
          <polygon class="st5" points="154.64 230.17 151.45 244.53 156.96 262.02 167.75 255.76 176.91 210.5 154.64 230.17"/>
          <polygon class="st5" points="128.92 211.83 121.38 221.77 138.06 229.39 152.71 227.98 174.96 208.29 128.92 211.83"/>
          <polygon class="st5" points="174.64 204.88 149.04 189.78 134.4 191.18 119.47 201.83 128.76 210.16 174.64 204.88"/>
          <polygon class="st5" points="150.52 187.26 176.13 202.34 158.54 159.65 146.75 155.55 144.66 173.77 150.52 187.26"/>
          <polygon class="st5" points="185.73 171.97 179.87 158.48 165.12 147.57 160.07 158.98 179.27 200.98 185.73 171.97"/>
          <polygon class="st5" points="217.57 159.22 199.6 162.86 188.57 172.61 182.14 201.62 217.32 171.69 217.57 159.22"/>
          <polygon class="st5" points="213.99 201.36 225.02 191.62 230.83 174.23 218.43 172.95 184.41 204.18 213.99 201.36"/>
          <polygon class="st5" points="184.69 207.12 224.02 231.32 235.96 227.7 226.95 211.74 214.27 204.26 184.69 207.12"/>
          <polygon class="st5" points="182.95 210.06 194.78 237.33 207.45 244.8 225.79 244.96 223.17 232.76 182.95 210.06"/>
        </g>
        <g>
          <path class="st3" d="M325.06,154.63c-19.27-7.86-41.32,1.44-49.17,20.7-7.86,19.27,1.42,41.32,20.69,49.17,8.78,3.57,18.14,3.59,26.46.74,2.97-1.03,5.81-2.41,8.45-4.14,2.55-8.43,7.69-15.82,14.85-21.24.31-.24.64-.48.97-.69.83-3.11,1.22-6.26,1.23-9.36.09-14.97-8.8-29.19-23.48-35.18ZM340.48,201.64c-3.12,7.65-8.87,13.44-15.79,16.76-7.88,3.78-17.24,4.35-25.94.81-16.35-6.66-24.23-25.39-17.57-41.73,6.66-16.35,25.38-24.23,41.73-17.57,13.69,5.58,21.45,19.63,19.69,33.64-.34,2.72-1.03,5.44-2.12,8.09Z"/>
          <polygon class="st3" points="306.93 202.02 295.37 187.07 301.97 214.18 325.65 199.4 306.92 202.02 306.93 202.02"/>
          <polygon class="st3" points="326.78 196.58 321.7 165.75 296.52 184.25 308.07 199.2 326.78 196.58"/>
        </g>
        <g>
          <path class="st3" d="M411.25,203.6c-7.98-10.54-19.58-17.34-32.69-19.14-10.48-1.43-20.89.44-30.02,5.34-2.05,1.09-4.03,2.33-5.94,3.75-.23.16-.45.31-.67.48-8.23,6.25-14.2,14.71-17.23,24.37-.73,2.21-1.28,4.5-1.65,6.83-.11.5-.19.99-.25,1.5-3.73,27.02,15.23,52.06,42.25,55.78,4.09.56,8.16.61,12.15.18,8.82-.95,17.25-4.27,24.51-9.77,10.54-7.98,17.32-19.6,19.14-32.69.56-4.08.61-8.15.18-12.14-.95-8.82-4.27-17.25-9.77-24.51ZM413.61,239.25c-1.53,11.16-7.33,21.05-16.31,27.86-8.98,6.8-20.08,9.7-31.25,8.17-23.03-3.19-39.2-24.51-36.02-47.56.32-2.26.8-4.47,1.47-6.62,2.55-8.43,7.69-15.82,14.85-21.24.31-.24.64-.48.97-.69,5.94-4.28,12.78-6.87,19.91-7.64,3.39-.37,6.87-.31,10.35.16,23.05,3.17,39.2,24.51,36.03,47.56Z"/>
          <path class="st3" d="M391.22,224.82c.02-.52,0-1.02-.04-1.48-.55-5.14-5.23-7.58-11.23-8.93l1.17-8.44-5.14-.7-1.13,8.21c-1.34-.18-2.73-.34-4.1-.51l1.14-8.27-5.14-.7-1.17,8.43c-1.12-.13-2.21-.26-3.27-.41h0s-7.09-1-7.09-1l-.75,5.48s3.72.45,3.72.51c2.09.29,2.6,1.59,2.66,2.66l-1.33,9.66-1.86,13.47c-.18.64-.71,1.64-2.17,1.43.07.07-3.72-.51-3.72-.51l-1.87,6,6.68.91c1.26.17,2.47.37,3.66.53l-1.17,8.53,5.13.71,1.17-8.44c1.41.23,2.77.42,4.1.6l-1.16,8.4,5.13.71,1.19-8.52c8.7.7,15.04-.65,16.91-8.66,1.5-6.43-1.17-9.78-5.91-11.63,3.18-1.11,5.42-3.53,5.6-8.04ZM381.52,242.08c-.89,6.38-11.7,4.15-15.18,3.67l1.55-11.3c3.48.48,14.54.98,13.63,7.63ZM381.33,225.8c-.8,5.8-9.82,3.87-12.71,3.48l1.41-10.27c2.9.41,12.14.74,11.3,6.79Z"/>
        </g>
      </g>
    </g>
  </g>
</svg>